# xmcd CD database file
#
# Track frame offsets:
#	150
#	11457
#	21943
#	31652
#	40090
#	52901
#	64170
#	75064
#	86722
#	95846
#	108416
#	120678
#	133746
#	147190
#	162545
#	173815
#	187572
#	200612
#	214397
#	227615
#
# Disc length: 3224 seconds
#
# Revision: 0
# Processed by: cddbd v1.4PL0 Copyright (c) Steve Scherf et al.
# Submitted via: CDex 1.50
#
DISCID=040c9614
DTITLE=Johnny Rodriquez - Desperado (his first 20 hits)
DYEAR=2001
DGENRE=Country
TTITLE0=Pass me by (if you're only passing by)
TTITLE1=You always come back (to hurting me)
TTITLE2=Ridin' my thumb to Mexico
TTITLE3=That's the way love goes
TTITLE4=Something
TTITLE5=Dance with me (just one more time)
TTITLE6=We're over
TTITLE7=I just can't get her out of my mind
TTITLE8=Just get up and close the door
TTITLE9=Love put a song in my heart
TTITLE10=I could't be me without you
TTITLE11=I wonder if I ever said goodbye
TTITLE12=Hillbilly heart
TTITLE13=Desperado
TTITLE14=If practice makes perfect
TTITLE15=Eres tu
TTITLE16=Savin' this love song for you
TTITLE17=We believe in happy endings
TTITLE18=Love me with all your heart
TTITLE19=Alibis
EXTD=YEAR: 2001
EXTT0=
EXTT1=
EXTT2=
EXTT3=
EXTT4=
EXTT5=
EXTT6=
EXTT7=
EXTT8=
EXTT9=
EXTT10=
EXTT11=
EXTT12=
EXTT13=
EXTT14=
EXTT15=
EXTT16=
EXTT17=
EXTT18=
EXTT19=
PLAYORDER=
